<?xml version="1.0" encoding="utf-8"?>
<!-- Generator: Adobe Illustrator 16.0.0, SVG Export Plug-In . SVG Version: 6.00 Build 0)  -->
<!DOCTYPE svg PUBLIC "-//W3C//DTD SVG 1.1//EN" "http://www.w3.org/Graphics/SVG/1.1/DTD/svg11.dtd">
<svg version="1.1" xmlns="http://www.w3.org/2000/svg" xmlns:xlink="http://www.w3.org/1999/xlink" x="0px" y="0px" width="1024px"
	 height="1094px" viewBox="0 0 1024 1094" enable-background="new 0 0 1024 1094" xml:space="preserve">
<g id="Layer_1">
	<rect x="0.376" y="1.143" fill="#FFFFFF" width="1023.999" height="1024"/>
	<rect x="0.376" y="1025" fill="#1D1F25" width="1023.999" height="70"/>
	<g>
		<g>
			<g>
				<path fill="#E0ECDE" d="M278.492,1044.442h5.203c4.089,0,7.455,1.075,10.106,3.197c2.666,2.139,3.997,5.186,3.997,9.154
					c0,4.077-1.319,7.199-3.962,9.362c-2.651,2.172-6.059,3.243-10.244,3.243h-5.101V1044.442z M281.625,1066.561h1.103
					c1.622,0,3.156-0.158,4.603-0.479c1.446-0.325,2.705-0.858,3.789-1.621c1.071-0.775,1.937-1.768,2.582-2.985
					c0.641-1.225,0.966-2.738,0.966-4.547c0-1.789-0.315-3.318-0.951-4.586c-0.634-1.275-1.511-2.264-2.655-2.973
					c-1.125-0.721-2.38-1.254-3.745-1.58c-1.374-0.346-2.901-0.504-4.588-0.504h-1.103V1066.561z"/>
				<path fill="#E0ECDE" d="M302.407,1062.158c0.042,1.381,0.492,2.59,1.33,3.61c0.871,1.018,1.99,1.514,3.364,1.514
					c1.092,0,1.982-0.251,2.688-0.747c0.7-0.508,1.363-1.254,1.984-2.259l2.539,1.426c-0.734,1.321-1.747,2.347-3.026,3.118
					c-1.28,0.742-2.683,1.108-4.215,1.108c-2.339,0-4.204-0.763-5.603-2.313c-1.38-1.588-2.074-3.51-2.074-5.832
					c0-2.43,0.661-4.447,1.977-6.015c1.29-1.556,3.166-2.31,5.636-2.31c2.407,0,4.208,0.754,5.438,2.31
					c1.242,1.538,1.868,3.522,1.868,5.928v0.462H302.407z M311.31,1059.912c-0.188-1.196-0.632-2.151-1.386-2.835
					c-0.746-0.696-1.718-1.05-2.916-1.05c-0.573,0-1.117,0.078-1.615,0.274c-0.505,0.204-0.942,0.479-1.334,0.817
					c-0.384,0.358-0.709,0.771-0.976,1.246c-0.254,0.488-0.421,0.988-0.5,1.547H311.31z"/>
				<path fill="#E0ECDE" d="M323.15,1057.461c-0.454-0.917-1.113-1.367-2.001-1.367c-0.421,0-0.803,0.15-1.134,0.445
					c-0.336,0.305-0.504,0.668-0.504,1.076c0,0.396,0.129,0.75,0.383,1.017c0.25,0.279,0.601,0.534,1.051,0.775
					c0.292,0.13,0.513,0.246,0.671,0.3c0.15,0.092,0.404,0.209,0.768,0.371c0.173,0.071,0.335,0.159,0.462,0.196
					c0.128,0.038,0.233,0.083,0.305,0.125c1.104,0.509,1.992,1.088,2.637,1.759c0.636,0.65,0.969,1.551,0.969,2.644
					c0,1.463-0.541,2.688-1.604,3.668c-1.042,0.984-2.306,1.459-3.767,1.459c-0.61,0-1.186-0.079-1.736-0.245
					c-0.55-0.154-1.068-0.393-1.557-0.692c-0.481-0.3-0.895-0.663-1.265-1.093c-0.367-0.441-0.65-0.921-0.853-1.434l2.565-1.154
					c0.733,1.321,1.68,1.972,2.845,1.972c0.47,0,0.898-0.117,1.286-0.376c0.408-0.254,0.707-0.566,0.893-0.954
					c0.186-0.404,0.231-0.809,0.116-1.275c-0.112-0.434-0.45-0.867-1.029-1.268l-2.947-1.555c-0.505-0.259-0.946-0.525-1.326-0.796
					c-0.375-0.271-0.689-0.547-0.929-0.838c-0.251-0.305-0.43-0.63-0.559-0.984c-0.117-0.375-0.18-0.792-0.18-1.283
					c0-1.26,0.442-2.322,1.338-3.186c0.893-0.875,1.972-1.309,3.265-1.309c1.959,0,3.38,0.884,4.267,2.709L323.15,1057.461z"/>
				<path fill="#E0ECDE" d="M333.916,1046.826c0,0.551-0.198,1.026-0.599,1.418c-0.4,0.404-0.892,0.596-1.463,0.596
					c-0.584,0-1.067-0.191-1.472-0.596c-0.4-0.392-0.598-0.867-0.598-1.418c0-0.583,0.197-1.07,0.598-1.479
					c0.404-0.408,0.888-0.596,1.472-0.596c0.571,0,1.063,0.188,1.463,0.596C333.718,1045.756,333.916,1046.243,333.916,1046.826z
					 M333.359,1069.399h-3.014v-15.486h3.014V1069.399z"/>
				<path fill="#E0ECDE" d="M352.764,1069.116c0,2.901-0.554,5.169-1.667,6.79c-1.119,1.584-3.098,2.372-5.94,2.372
					c-2.201,0-4.002-0.629-5.404-1.884c-1.378-1.255-2.095-2.964-2.128-5.132h2.99c0,1.393,0.437,2.46,1.284,3.235
					c0.869,0.75,1.995,1.134,3.396,1.134c1.713,0,2.885-0.492,3.521-1.501c0.632-1,0.944-2.385,0.944-4.202v-2.951h-0.071
					c-0.617,0.946-1.393,1.667-2.313,2.181c-0.923,0.521-1.915,0.771-2.979,0.771c-2.317,0-4.147-0.8-5.479-2.409
					c-1.325-1.617-1.984-3.594-1.984-5.961c0-2.238,0.667-4.123,2.021-5.686c1.357-1.618,3.125-2.414,5.312-2.414
					c2.28,0,4.105,1.038,5.423,3.085h0.071v-2.631h3.005V1069.116z M344.869,1067.282c1.571,0,2.805-0.538,3.688-1.613
					c0.909-1.109,1.372-2.451,1.372-4.007c0-1.55-0.463-2.859-1.372-3.947c-0.884-1.066-2.117-1.621-3.688-1.621
					c-1.497,0-2.697,0.555-3.612,1.667c-0.895,1.08-1.341,2.38-1.341,3.901c0,1.556,0.446,2.881,1.341,3.969
					C342.172,1066.744,343.372,1067.282,344.869,1067.282z"/>
				<path fill="#E0ECDE" d="M359.667,1055.989h0.067c0.433-0.829,1.086-1.438,1.93-1.88c0.851-0.45,1.768-0.65,2.772-0.65
					c1.021,0,1.878,0.142,2.604,0.454c0.701,0.3,1.28,0.742,1.71,1.321c0.438,0.58,0.748,1.271,0.936,2.102
					c0.189,0.821,0.281,1.775,0.281,2.822v9.241h-3.001v-8.87c0-1.526-0.226-2.639-0.663-3.34c-0.45-0.733-1.371-1.096-2.768-1.096
					c-0.516,0-0.951,0.054-1.299,0.15c-0.363,0.091-0.674,0.232-0.938,0.425c-0.269,0.188-0.487,0.408-0.669,0.646
					c-0.169,0.246-0.346,0.509-0.496,0.809c-0.066,0.139-0.129,0.351-0.191,0.593c-0.046,0.237-0.096,0.487-0.14,0.733
					c-0.046,0.258-0.086,0.509-0.103,0.771c-0.024,0.262-0.033,0.458-0.033,0.608v1.446v7.124h-3.003v-15.486h3.003V1055.989z"/>
				<path fill="#E0ECDE" d="M383.516,1040.67h2.997v15.815h0.066c1.376-2.03,3.189-3.026,5.437-3.026
					c2.172,0,3.945,0.796,5.307,2.414c1.354,1.563,2.03,3.447,2.03,5.686c0,2.367-0.672,4.344-1.999,5.961
					c-1.341,1.609-3.166,2.409-5.47,2.409c-1.064,0-2.063-0.25-2.99-0.771c-0.918-0.514-1.69-1.234-2.314-2.181h-0.066v2.422h-2.997
					V1040.67z M391.286,1067.282c1.575,0,2.806-0.538,3.697-1.613c0.909-1.109,1.363-2.451,1.363-4.007
					c0-1.55-0.454-2.859-1.363-3.947c-0.892-1.066-2.122-1.621-3.697-1.621c-1.488,0-2.697,0.555-3.606,1.667
					c-0.888,1.08-1.338,2.38-1.338,3.901c0,1.556,0.45,2.881,1.338,3.969C388.589,1066.744,389.798,1067.282,391.286,1067.282z"/>
				<path fill="#E0ECDE" d="M399.781,1053.913h3.504l5.267,9.825l4.907-9.825h3.368l-12.647,24.365h-3.402l6.149-11.526
					L399.781,1053.913z"/>
				<path fill="#E0ECDE" d="M431.967,1063.135l-2.865,6.265h-3.371l12.004-26.012l12.014,26.012h-3.366l-2.876-6.265H431.967z
					 M437.734,1050.199l-4.467,10.113h8.938L437.734,1050.199z"/>
				<path fill="#E0ECDE" d="M454.64,1069.399h-3.001v-28.729h3.001V1069.399z"/>
				<path fill="#E0ECDE" d="M462.039,1069.399h-2.991v-28.729h2.991V1069.399z"/>
				<path fill="#E0ECDE" d="M473.448,1057.561v2.473h-7.29v-2.473H473.448z"/>
				<path fill="#E0ECDE" d="M485.129,1043.68c-0.938-0.434-1.609-0.617-2.001-0.617c-0.644,0-1.117,0.18-1.402,0.604
					c-0.294,0.404-0.481,0.904-0.599,1.497c-0.061,0.445-0.104,0.791-0.123,1.054c-0.01,0.238-0.019,0.604-0.019,1.034v6.661h4.144
					v2.78h-4.144v12.706h-2.993v-12.706h-1.371v-2.78h1.371v-7.549c0-4.064,1.672-6.095,5.031-6.095c0.738,0,1.431,0.129,2.105,0.4
					V1043.68z"/>
				<path fill="#E0ECDE" d="M489.763,1056.432h0.087c0.39-0.93,0.94-1.664,1.683-2.181c0.735-0.55,1.604-0.792,2.593-0.792
					c0.825,0,1.646,0.242,2.472,0.75l-1.367,2.719c-0.479-0.422-1.104-0.626-1.834-0.626c-1.53,0-2.556,0.621-3.066,1.843
					c-0.225,0.584-0.381,1.167-0.458,1.717c-0.069,0.555-0.108,1.197-0.108,1.922v7.616h-2.997v-15.486h2.997V1056.432z"/>
				<path fill="#E0ECDE" d="M500.065,1062.158c0.046,1.381,0.479,2.59,1.329,3.61c0.878,1.018,1.988,1.514,3.373,1.514
					c1.094,0,1.986-0.251,2.688-0.747c0.696-0.508,1.357-1.254,1.984-2.259l2.53,1.426c-0.733,1.321-1.734,2.347-3.022,3.118
					c-1.273,0.742-2.676,1.108-4.219,1.108c-2.321,0-4.197-0.763-5.599-2.313c-1.371-1.588-2.067-3.51-2.067-5.832
					c0-2.43,0.654-4.447,1.977-6.015c1.279-1.556,3.155-2.31,5.621-2.31c2.416,0,4.229,0.754,5.45,2.31
					c1.251,1.538,1.859,3.522,1.859,5.928v0.462H500.065z M508.97,1059.912c-0.18-1.196-0.639-2.151-1.389-2.835
					c-0.744-0.696-1.717-1.05-2.92-1.05c-0.569,0-1.117,0.078-1.605,0.274c-0.502,0.204-0.948,0.479-1.34,0.817
					c-0.39,0.358-0.713,0.771-0.969,1.246c-0.242,0.488-0.428,0.988-0.516,1.547H508.97z"/>
				<path fill="#E0ECDE" d="M516.339,1062.158c0.049,1.381,0.496,2.59,1.339,3.61c0.862,1.018,1.978,1.514,3.357,1.514
					c1.099,0,1.99-0.251,2.69-0.747c0.701-0.508,1.372-1.254,1.984-2.259l2.526,1.426c-0.726,1.321-1.729,2.347-3.005,3.118
					c-1.276,0.742-2.693,1.108-4.226,1.108c-2.332,0-4.199-0.763-5.601-2.313c-1.375-1.588-2.067-3.51-2.067-5.832
					c0-2.43,0.652-4.447,1.97-6.015c1.288-1.556,3.162-2.31,5.646-2.31c2.393,0,4.206,0.754,5.423,2.31
					c1.249,1.538,1.859,3.522,1.859,5.928v0.462H516.339z M525.252,1059.912c-0.178-1.196-0.654-2.151-1.389-2.835
					c-0.75-0.696-1.728-1.05-2.909-1.05c-0.592,0-1.128,0.078-1.626,0.274c-0.504,0.204-0.954,0.479-1.334,0.817
					c-0.392,0.358-0.726,0.771-0.967,1.246c-0.261,0.488-0.432,0.988-0.517,1.547H525.252z"/>
				<path fill="#E0ECDE" d="M537.947,1057.561v2.473h-7.293v-2.473H537.947z"/>
				<path fill="#E0ECDE" d="M553.523,1066.978h-0.055c-0.632,0.946-1.398,1.667-2.328,2.181c-0.921,0.521-1.917,0.771-2.977,0.771
					c-2.328,0-4.142-0.8-5.471-2.409c-1.339-1.617-2.005-3.594-2.005-5.961c0-2.238,0.669-4.123,2.029-5.686
					c1.363-1.618,3.118-2.414,5.312-2.414c2.244,0,4.054,0.996,5.439,3.026h0.055v-15.815h2.995v28.729h-2.995V1066.978z
					 M548.616,1067.282c1.591,0,2.831-0.538,3.715-1.613c0.904-1.109,1.365-2.451,1.365-4.007c0-1.55-0.461-2.859-1.365-3.947
					c-0.884-1.066-2.124-1.621-3.715-1.621c-1.478,0-2.68,0.555-3.591,1.667c-0.892,1.08-1.342,2.38-1.342,3.901
					c0,1.556,0.45,2.881,1.342,3.969C545.937,1066.744,547.139,1067.282,548.616,1067.282z"/>
				<path fill="#E0ECDE" d="M561.425,1055.826c1.623-1.575,3.607-2.367,5.944-2.367c2.328,0,4.313,0.792,5.896,2.367
					c1.626,1.593,2.438,3.553,2.438,5.87s-0.813,4.269-2.438,5.86c-1.584,1.593-3.568,2.372-5.896,2.372
					c-2.337,0-4.321-0.779-5.944-2.372c-1.591-1.592-2.389-3.543-2.389-5.86S559.834,1057.419,561.425,1055.826z M562.022,1061.696
					c0,1.434,0.532,2.701,1.576,3.806c1.021,1.059,2.28,1.584,3.771,1.584c1.452,0,2.722-0.525,3.765-1.584
					c1.055-1.104,1.577-2.372,1.577-3.806c0-1.459-0.522-2.727-1.577-3.806c-1.043-1.067-2.313-1.589-3.765-1.589
					c-1.49,0-2.749,0.521-3.771,1.589C562.555,1058.97,562.022,1060.237,562.022,1061.696z"/>
				<path fill="#E0ECDE" d="M583.774,1063.776l4.6-10.726l4.573,10.726l4.531-9.863h3.408l-7.939,16.016l-4.573-10.354l-4.6,10.354
					l-7.933-16.016h3.401L583.774,1063.776z"/>
				<path fill="#E0ECDE" d="M605.382,1055.989h0.063c0.442-0.829,1.097-1.438,1.947-1.88c0.832-0.45,1.768-0.65,2.762-0.65
					c1.027,0,1.895,0.142,2.597,0.454c0.711,0.3,1.286,0.742,1.712,1.321c0.458,0.58,0.761,1.271,0.948,2.102
					c0.191,0.821,0.272,1.775,0.272,2.822v9.241h-2.995v-8.87c0-1.526-0.212-2.639-0.66-3.34c-0.459-0.733-1.374-1.096-2.776-1.096
					c-0.513,0-0.94,0.054-1.307,0.15c-0.342,0.091-0.659,0.232-0.924,0.425c-0.267,0.188-0.498,0.408-0.675,0.646
					c-0.18,0.246-0.334,0.509-0.505,0.809c-0.054,0.139-0.121,0.351-0.169,0.593c-0.059,0.237-0.104,0.487-0.162,0.733
					c-0.033,0.258-0.065,0.509-0.101,0.771c-0.01,0.262-0.027,0.458-0.027,0.608v1.446v7.124h-3.005v-15.486h3.005V1055.989z"/>
				<path fill="#E0ECDE" d="M622.957,1069.399h-2.999v-28.729h2.999V1069.399z"/>
				<path fill="#E0ECDE" d="M628.229,1055.826c1.626-1.575,3.607-2.367,5.939-2.367c2.32,0,4.305,0.792,5.901,2.367
					c1.615,1.593,2.426,3.553,2.426,5.87s-0.811,4.269-2.426,5.86c-1.597,1.593-3.581,2.372-5.901,2.372
					c-2.332,0-4.313-0.779-5.939-2.372c-1.605-1.592-2.402-3.543-2.402-5.86S626.623,1057.419,628.229,1055.826z M628.831,1061.696
					c0,1.434,0.524,2.701,1.566,3.806c1.021,1.059,2.276,1.584,3.771,1.584c1.474,0,2.721-0.525,3.757-1.584
					c1.057-1.104,1.584-2.372,1.584-3.806c0-1.459-0.527-2.727-1.584-3.806c-1.036-1.067-2.283-1.589-3.757-1.589
					c-1.494,0-2.75,0.521-3.771,1.589C629.355,1058.97,628.831,1060.237,628.831,1061.696z"/>
				<path fill="#E0ECDE" d="M659.878,1069.399h-3.001v-2.422h-0.066c-1.328,1.976-3.1,2.951-5.303,2.951
					c-2.291,0-4.114-0.8-5.481-2.409c-1.326-1.617-1.979-3.594-1.979-5.961c0-2.238,0.676-4.123,2.024-5.686
					c1.36-1.618,3.139-2.414,5.333-2.414c2.229,0,4.042,0.996,5.405,3.026h0.066v-2.572h3.001V1069.399z M651.977,1067.282
					c1.571,0,2.813-0.538,3.71-1.613c0.898-1.109,1.353-2.451,1.353-4.007c0-1.55-0.454-2.859-1.353-3.947
					c-0.896-1.066-2.139-1.621-3.71-1.621c-1.488,0-2.699,0.555-3.602,1.667c-0.892,1.08-1.334,2.38-1.334,3.901
					c0,1.556,0.442,2.881,1.334,3.969C649.277,1066.744,650.488,1067.282,651.977,1067.282z"/>
				<path fill="#E0ECDE" d="M675.423,1066.978h-0.073c-0.621,0.946-1.398,1.667-2.319,2.181c-0.913,0.521-1.914,0.771-2.982,0.771
					c-2.316,0-4.132-0.8-5.47-2.409c-1.336-1.617-1.994-3.594-1.994-5.961c0-2.238,0.671-4.123,2.038-5.686
					c1.353-1.618,3.109-2.414,5.288-2.414c2.251,0,4.056,0.996,5.439,3.026h0.073v-15.815h2.995v28.729h-2.995V1066.978z
					 M670.522,1067.282c1.576,0,2.808-0.538,3.695-1.613c0.915-1.109,1.361-2.451,1.361-4.007c0-1.55-0.446-2.859-1.361-3.947
					c-0.888-1.066-2.119-1.621-3.695-1.621c-1.498,0-2.688,0.555-3.614,1.667c-0.877,1.08-1.321,2.38-1.321,3.901
					c0,1.556,0.444,2.881,1.321,3.969C667.834,1066.744,669.024,1067.282,670.522,1067.282z"/>
				<path fill="#E0ECDE" d="M687.022,1068.016c0,0.529-0.176,0.992-0.559,1.359c-0.38,0.366-0.845,0.554-1.376,0.554
					c-0.523,0-1.001-0.188-1.372-0.554c-0.366-0.367-0.568-0.83-0.568-1.359c0-0.509,0.202-0.963,0.568-1.354
					c0.371-0.367,0.849-0.559,1.372-0.559c0.531,0,0.996,0.191,1.376,0.559C686.847,1067.053,687.022,1067.507,687.022,1068.016z"/>
				<path fill="#E0ECDE" d="M703.43,1058.319c-1.238-1.392-2.735-2.097-4.469-2.097c-1.448,0-2.668,0.559-3.693,1.639
					c-1.005,1.092-1.501,2.376-1.501,3.801c0,1.618,0.496,2.914,1.501,3.932c1.04,1.038,2.334,1.571,3.885,1.571
					c1.605,0,3.039-0.7,4.277-2.067v3.811c-1.286,0.691-2.718,1.021-4.295,1.021c-2.311,0-4.295-0.771-5.938-2.351
					c-1.625-1.551-2.432-3.473-2.432-5.795c0-2.376,0.807-4.364,2.432-5.957c1.624-1.575,3.646-2.367,6.096-2.367
					c1.608,0,2.994,0.329,4.137,1.018V1058.319z"/>
				<path fill="#E0ECDE" d="M707.673,1055.826c1.624-1.575,3.604-2.367,5.937-2.367c2.341,0,4.309,0.792,5.909,2.367
					c1.613,1.593,2.417,3.553,2.417,5.87s-0.804,4.269-2.417,5.86c-1.601,1.593-3.568,2.372-5.909,2.372
					c-2.333,0-4.313-0.779-5.937-2.372c-1.601-1.592-2.407-3.543-2.407-5.86S706.072,1057.419,707.673,1055.826z M708.273,1061.696
					c0,1.434,0.504,2.701,1.563,3.806c1.021,1.059,2.277,1.584,3.772,1.584c1.463,0,2.726-0.525,3.769-1.584
					c1.037-1.104,1.563-2.372,1.563-3.806c0-1.459-0.525-2.727-1.563-3.806c-1.043-1.067-2.306-1.589-3.769-1.589
					c-1.495,0-2.751,0.521-3.772,1.589C708.777,1058.97,708.273,1060.237,708.273,1061.696z"/>
				<path fill="#E0ECDE" d="M727.58,1055.873h0.075c0.43-0.722,1.021-1.293,1.775-1.76c0.74-0.434,1.528-0.654,2.354-0.654
					c1.946,0,3.445,0.904,4.5,2.73c0.483-0.834,1.165-1.505,2.02-1.997c0.844-0.496,1.793-0.733,2.78-0.733
					c3.458,0,5.171,2.218,5.171,6.682v9.259h-2.997v-8.771c0-0.392-0.022-0.801-0.054-1.18c-0.038-0.384-0.092-0.755-0.186-1.13
					c-0.092-0.354-0.221-0.679-0.41-1.005c-0.17-0.3-0.415-0.575-0.72-0.829c-0.396-0.263-0.913-0.392-1.534-0.392
					c-0.631,0-1.163,0.129-1.591,0.392c-0.429,0.254-0.762,0.567-0.991,0.921c-0.25,0.354-0.43,0.838-0.559,1.372
					c-0.119,0.542-0.215,1.05-0.248,1.496c-0.023,0.434-0.046,0.946-0.046,1.509v7.616h-3.012v-8.204
					c0-0.529-0.002-0.958-0.031-1.313c-0.023-0.371-0.086-0.805-0.198-1.347c-0.108-0.571-0.25-0.976-0.432-1.251
					c-0.184-0.304-0.452-0.583-0.831-0.829c-0.38-0.237-0.838-0.362-1.368-0.362c-1.535,0-2.521,0.667-2.963,1.992
					c-0.205,0.613-0.338,1.205-0.411,1.742c-0.056,0.559-0.094,1.213-0.094,1.955v7.616h-2.995v-15.486h2.995V1055.873z"/>
			</g>
			<g>
				<g>
					<path fill="#E0ECDE" d="M208.537,1060.274c14.159,0,28.315,0,42.476,0c1.288,0,1.288-1.988,0-1.988c-14.16,0-28.316,0-42.476,0
						C207.251,1058.286,207.251,1060.274,208.537,1060.274L208.537,1060.274z"/>
				</g>
				<g>
					<path fill="#E0ECDE" d="M773.736,1060.274c14.152,0,28.313,0,42.468,0c1.299,0,1.299-1.988,0-1.988
						c-14.154,0-28.315,0-42.468,0C772.457,1058.286,772.457,1060.274,773.736,1060.274L773.736,1060.274z"/>
				</g>
			</g>
		</g>
	</g>
</g>
<g id="Layer_3">
	<g>
		<path fill="#FFFFFF" stroke="#231F20" stroke-miterlimit="10" d="M770.385,962.771c0,0,1.464-41.476-23.422-59.285
			c27.08,6.343,33.181,25.616,33.181,25.616s-4.391-29.032-1.465-40.986c7.076,14.882,11.712,37.327,11.712,37.327
			s-2.684-26.594,15.126-41.23c-3.172,11.223-1.22,47.127-1.22,47.127s5.855-22.975,23.908-34.93
			c-14.354,20.593-7.71,64.897-7.71,64.897L770.385,962.771z"/>
		<path fill="#FFFFFF" stroke="#231F20" stroke-miterlimit="10" d="M870.752,912.05c0,0,1.034-29.303-16.548-41.886
			c19.134,4.48,23.442,18.099,23.442,18.099s-3.103-20.512-1.034-28.958c5,10.515,8.273,26.373,8.273,26.373
			s-1.896-18.789,10.688-29.132c-2.242,7.93-0.861,33.296-0.861,33.296s4.136-16.23,16.892-24.677
			c-10.143,14.549-5.446,45.85-5.446,45.85L870.752,912.05z"/>
		<path fill="#FFFFFF" stroke="#231F20" stroke-miterlimit="10" d="M129.244,977.728c0,0,0.861-24.401-13.779-34.879
			c15.932,3.731,19.521,15.072,19.521,15.072s-2.584-17.081-0.862-24.115c4.163,8.757,6.891,21.961,6.891,21.961
			s-1.578-15.646,8.899-24.256c-1.866,6.601-0.717,27.725-0.717,27.725s3.445-13.515,14.066-20.55
			c-8.445,12.115-4.536,38.182-4.536,38.182L129.244,977.728z"/>
		<path fill="#FFFFFF" stroke="#231F20" stroke-miterlimit="10" d="M189.321,943.952c0,0,1.628-46.146-26.06-65.962
			c30.131,7.058,36.917,28.503,36.917,28.503s-4.886-32.303-1.628-45.604c7.872,16.559,13.029,41.53,13.029,41.53
			s-2.986-29.587,16.831-45.873c-3.529,12.486-1.358,52.434-1.358,52.434s6.516-25.561,26.602-38.861
			c-15.971,22.912-8.579,72.204-8.579,72.204L189.321,943.952z"/>
		<path fill="#FFFFFF" stroke="#231F20" stroke-width="5" stroke-miterlimit="10" d="M450.141,514.927v21.467
			c0,0-42.581-0.705-62.288,5.981c-19.707,6.686-42.153,70.556-63.367,122.765c-21.214,52.207,12.569,51.856,12.569,51.856
			l50.124-38.529c0,0,13.039-35.571,13.39-34.164c0.352,1.408-8.139,75.08-8.139,75.08s71.502,16.52,88.016,5.293
			c16.515-11.227,117.408-113.231,118.208-119.547c0.799-6.313,4.199-30.602,4.199-30.602s-60.378-38.367-60.339-38.574
			s1.078-31.857,1.078-31.857L450.141,514.927z"/>
		<path fill="#FFFFFF" stroke="#231F20" stroke-width="3" stroke-miterlimit="10" d="M619.369,912.599
			c0,0,36.063,3.855,59.685-13.151c23.621-17.008,50.941-53.543,28.777-93.857c-22.164-40.313-48.306-28.66-127.989,7.56
			c-79.683,36.22-118.107,19.842-175.744-12.913c-57.637-32.755-93.856-32.125-105.51-12.913
			c-11.653,19.212-37.479,99.525-7.873,131.021c29.605,31.496,142.988,0.631,172.909,6.613c29.92,5.986,32.757-10.426,82.204-2.693
			C595.275,929.997,619.369,912.599,619.369,912.599"/>
		<path fill="#FFFFFF" stroke="#231F20" stroke-width="3" stroke-miterlimit="10" d="M462,840.5
			c13.628,6.468,16.614,33.937-6.739,43.944c-23.354,10.009-59.784,42.553-87.018,45.409c-27.234,2.855-42.918-22.544-42.918-22.544
			s20.973-35.712,24.578-42.216c3.605-6.505,20.286-30.414,36.133-32.638s35.085,0.835,37.143,1.669"/>
		<path fill="#FFFFFF" stroke="#231F20" stroke-width="5" stroke-miterlimit="10" d="M313.813,854.202
			c-23.368-14.593-25.54-67.312,17.425-70.416c42.966-3.103,80.68,30.554,128.181,57.528c47.5,26.97,62.776,44.872,105.981,50.364
			c43.205,5.488,44.544,12.377,66.136,13.765c21.594,1.388,24.062-0.462,25.913,5.553c1.851,6.016-5.243,11.413-7.249,11.567
			c2.776,6.632-4.627,10.643-4.627,10.643s2.158,6.632-4.474,10.024c1.697,10.334-10.025,9.718-10.025,9.718
			s5.552,7.558-8.173,8.329c-13.729,0.771-23.908,10.949-51.825,0c-27.916-10.952-80.203,11.566-90.999-25.604
			C448.303,922.255,347.593,875.298,313.813,854.202"/>
		<path fill="#231F20" d="M649.55,920.158c-6.3-1.024-12.836-0.284-19.213-1.172c-0.905-0.127-1.297,1.259-0.382,1.387
			c6.361,0.886,12.935,0.15,19.212,1.173C650.072,921.693,650.463,920.309,649.55,920.158"/>
		<path fill="#231F20" d="M643.974,932.329c-7.033-1.432-14.531-1.193-21.659-2.347c-0.905-0.146-1.295,1.239-0.382,1.387
			c7.127,1.153,14.633,0.918,21.658,2.348C644.493,933.9,644.881,932.516,643.974,932.329"/>
		<path fill="#231F20" d="M640.778,942.006c-6.996-0.584-14.579,0.4-21.401-1.24c-0.898-0.216-1.284,1.171-0.382,1.387
			c6.999,1.685,14.627,0.694,21.783,1.292C641.7,943.521,641.696,942.084,640.778,942.006"/>
		<path fill="#231F20" d="M630.779,951.223c-2.323-0.929-4.841-0.912-7.309-0.893c-3.513,0.025-6.87-0.153-10.315-0.923
			c-0.901-0.201-1.288,1.186-0.382,1.387c2.729,0.612,5.445,0.967,8.246,0.994c3.126,0.032,6.408-0.367,9.377,0.823
			C631.256,952.955,631.629,951.563,630.779,951.223"/>
		<path fill="#FFFFFF" stroke="#231F20" stroke-width="3" stroke-miterlimit="10" d="M727.817,716.765
			c-25.788-20.831-20.325-50.436-31.446-74.029c-10.93-23.186-22.567-42.737-32.334-57.562
			c-13.024-22.012-29.035-41.691-40.252-45.684c-26.556-9.451-81.28-8.421-81.28-8.421s30.646,101.19-159.118,164.611
			c-17.06,80.089-38.658,88.31-38.658,88.31s90.071,42.677,105.553,47.671c15.48,4.993,33.021,34.244,82.39,23.259
			c49.368-10.987,68.141-12.429,82.123-20.418c2-1.144,4.104-2.464,6.238-3.881c9.249,31.387,27.967,65.77,65.472,62.877
			C754.444,888.26,786.214,763.935,727.817,716.765z"/>
		<path fill="#FFFFFF" stroke="#231F20" stroke-width="5" stroke-miterlimit="10" d="M237.037,352.336
			c6.178,50.126,49.253,86.8,85.302,86.763c36.048-0.042,48.123-38.899,48.078-86.412c-0.055-47.511-29.323-86.118-65.374-85.957
			C255.771,266.953,231.233,305.225,237.037,352.336"/>
		<path fill="#FFFFFF" stroke="#231F20" stroke-miterlimit="10" d="M278.25,368.478c0.027,20.834,14.938,37.706,33.315,37.688
			c18.364-0.025,33.243-16.928,33.214-37.763c-0.023-20.832-14.936-37.701-33.302-37.681
			C293.104,330.739,278.233,347.648,278.25,368.478"/>
		<path fill="#FFFFFF" stroke="#231F20" stroke-width="5" stroke-miterlimit="10" d="M761.862,424.919
			c-19.545,46.569-70.963,70.174-105.648,60.354c-34.686-9.824-35.756-50.499-22.821-96.215
			c12.951-45.713,51.597-74.927,86.254-64.989C767.01,337.657,780.233,381.15,761.862,424.919"/>
		<path fill="#FFFFFF" stroke="#231F20" stroke-miterlimit="10" d="M715.211,428.91c-5.674,20.042-24.605,32.233-42.281,27.231
			c-17.676-5.007-27.404-25.316-21.729-45.359c5.678-20.046,24.608-32.231,42.284-27.229
			C711.159,388.555,720.889,408.868,715.211,428.91"/>
		<path fill="#FFFFFF" stroke="#231F20" stroke-width="5" stroke-miterlimit="10" d="M721.319,195.317
			c19.423,62.65-32.098,261.95-63.75,290.923c-33.573,30.735-155.048,47.801-179.613,44.403
			c-26.314-3.64-136.69-49.267-153.666-90.495c-20.08-48.794-20.982-230.837,8.93-282.962c44.538-77.612,113.443-98.214,208.988-85
			C631.595,84.548,698.665,122.247,721.319,195.317"/>
		<path fill="#FFFFFF" stroke="#231F20" stroke-miterlimit="10" d="M665.443,457.266c-0.46,9.905-14.596,17.294-31.578,16.508
			c-16.974-0.787-30.37-9.453-29.912-19.357c0.46-9.903,14.601-17.294,31.576-16.508
			C652.508,438.695,665.901,447.363,665.443,457.266"/>
		<path fill="#FFFFFF" stroke="#231F20" stroke-miterlimit="10" d="M394.809,431.977c-1.836,9.744-16.867,15.089-33.572,11.94
			c-16.699-3.146-28.756-13.598-26.92-23.342c1.838-9.742,16.871-15.087,33.569-11.941
			C384.592,411.782,396.644,422.235,394.809,431.977"/>
		<path fill="#231F20" d="M508.963,427.566c-1.053-0.145-1.876-1.034-1.907-2.132c-0.207-7.793-5.551-13.551-13.61-14.665
			c-8.104-1.121-14.962,3.048-17.067,10.373c-0.339,1.172-1.57,1.855-2.738,1.516c-1.176-0.335-1.853-1.563-1.514-2.738
			c2.693-9.384,11.711-14.95,21.924-13.537c10.159,1.406,17.165,9.015,17.431,18.932c0.033,1.222-0.928,2.238-2.151,2.273
			L508.963,427.566z"/>
		<path fill="#231F20" d="M661.166,373.852c-1.467-0.28-2.835-1.081-3.807-2.355c-12.432-16.226-40.166-25.359-64.569-21.208
			c-3.388,0.594-6.638-1.705-7.23-5.131c-0.582-3.411,1.712-6.647,5.13-7.233c29.117-4.935,61.354,5.982,76.627,25.963
			c2.103,2.753,1.577,6.682-1.173,8.785C664.675,373.805,662.859,374.173,661.166,373.852"/>
		<path fill="#231F20" d="M359.954,333.749c-1.714-0.186-3.342-1.068-4.417-2.58c-2.019-2.813-1.374-6.728,1.442-8.745
			c20.453-14.655,54.465-15.679,80.866-2.471c3.099,1.559,4.349,5.323,2.797,8.413c-1.559,3.107-5.331,4.357-8.413,2.801
			c-22.124-11.103-51.336-10.484-67.948,1.442C362.98,333.543,361.438,333.91,359.954,333.749"/>
		<path fill="#231F20" d="M488.285,483.516l0.455,0.041c15.816,1.656,29.884-1.508,37.647-8.474
			c1.044-0.943,1.129-2.554,0.195-3.596c-0.921-1.051-2.532-1.128-3.594-0.195c-6.611,5.933-19.526,8.695-33.711,7.206l-0.424-0.036
			c-14.109-1.556-26.102-6.967-31.351-14.172c-0.855-1.125-2.438-1.368-3.556-0.554c-1.13,0.825-1.376,2.417-0.555,3.56
			C459.559,475.729,472.579,481.783,488.285,483.516"/>
		<path fill="#F0F0F0" d="M567.499,533.13c7.813,1.234,12.75,104.471-17.687,150.124c-30.436,45.653-110.227,101.18-106.937,67.04
			c3.291-34.137,81.848-79.791,101.591-121.743C564.209,586.6,567.499,533.13,567.499,533.13"/>
		<path fill="#F0F0F0" d="M606.572,691.067c0,0-14.395,47.3-69.921,53.881c-55.525,6.58-57.993,43.186-99.533,32.903
			c-41.541-10.282,47.711,40.61,102.823-2.316C595.056,732.611,602.46,737.545,606.572,691.067"/>
		<path fill="#FFFFFF" stroke="#231F20" stroke-width="5" stroke-miterlimit="10" d="M595.401,744.418
			c-0.514,0.492-40.873,5.494-50.699,3.379c-15.157-3.261-21.892-19.11-24.139-49.674c-2.249-30.563-0.9-44.725,3.594-42.927
			c0,0-3.818-13.708,0.451-18.878c-0.899-17.304,4.944-21.575,19.776,2.248c14.833,23.822,14.949,44.446,14.949,44.446l52.923-6.245
			C612.257,676.768,611.808,728.687,595.401,744.418"/>
		<path fill="#231F20" d="M533.725,697.38c1.625-14.429-3.755-27.629-9.398-40.593c-0.638-1.463,1.52-2.739,2.162-1.265
			c5.812,13.354,11.414,27,9.741,41.857C536.051,698.965,533.544,698.982,533.725,697.38"/>
		<path fill="#231F20" d="M526.688,631.475c6.22,5.867,10.797,12.787,13.701,20.846c3.243,8.997,6.123,19.197,5.37,28.827
			c-0.124,1.596-2.632,1.607-2.506,0c0.692-8.836-1.872-17.907-4.626-26.259c-2.771-8.402-7.266-15.563-13.71-21.645
			C523.741,632.137,525.515,630.369,526.688,631.475"/>
		<path fill="#FFFFFF" stroke="#231F20" stroke-width="3" stroke-miterlimit="10" d="M464.191,841.09
			c0,0-57.189-11.041-73.804,21.418c-16.617,32.458-0.387,60.13-33.233,58.466c-32.844-1.662-68.453-44.952-64.53-87.447
			c3.923-42.494,6.172-50.807,13.94-54.262c7.767-3.455,17.359-9.682,47.113,4.323C383.431,797.592,464.191,841.09,464.191,841.09"
			/>
		<path fill="#FFFFFF" stroke="#231F20" stroke-width="3" stroke-miterlimit="10" d="M624,596.5
			c6,50.997-44.934,49.975-47.02,74.134c-1.315,0.478-0.3,6.343-0.206,7.676c0,0,43.513,17.793,15.253,74.865
			c-9.587,19.362-10.393,45.169,17.326,31.179c23.492-11.857,52.138-40.115,58.146-64.354c4.048-16.327,5.589-27.511,5.5-44"/>
		<path fill="#231F20" d="M572.163,384.738c6.471,13.043,20.324,23.06,36.431,26.461c7.723,1.665,15.981,1.255,21.754,0.292
			c5.497-0.919,15.425-5.165,18.468-9.746c1.413-2.128,0.907-4.992-1.816-6.803c-0.706-0.472-1.47-0.811-2.259-1.028
			c-2.205-0.602-4.511-0.167-5.774,1.271c-5.983,6.771-17.274,9.347-29.477,6.71c-12.227-2.5-21.87-9.665-26.635-19.3
			c-1.294-2.596-4.719-4.204-7.678-3.628C572.228,379.562,570.884,382.137,572.163,384.738"/>
		<path fill="#231F20" d="M358.863,362.107c8.765,11.629,24.224,18.921,40.682,19.299c7.897,0.214,15.94-1.709,21.436-3.719
			c5.232-1.916,14.208-7.917,16.357-12.98c0.997-2.352-0.028-5.074-3.039-6.352c-0.781-0.335-1.595-0.528-2.41-0.595
			c-2.278-0.187-4.465,0.667-5.44,2.313c-4.635,7.758-15.259,12.368-27.738,12.025c-12.478-0.205-23.275-5.471-29.734-14.065
			c-1.748-2.313-5.41-3.262-8.213-2.153C357.974,357.007,357.128,359.787,358.863,362.107"/>
		<path fill="#FFFFFF" stroke="#231F20" stroke-width="3" stroke-miterlimit="10" d="M315.228,224.71
			c3.805-28.733,9.718-53.105,17.993-67.525c44.538-77.61,113.443-98.214,208.988-85c89.386,12.362,156.456,50.061,179.11,123.13
			c4.452,14.362,9.914,57.652-0.335,93.209c-7.85-31.322-22.528-82.531-52.379-83.691c-21.973-0.854-57.914,27.154-92.173,44.284
			c-89.338,44.669-117.072-47.324-174.825-65.463C377.441,176.064,344.78,169.407,315.228,224.71"/>
		<path fill="#FFFFFF" stroke="#231F20" stroke-width="5" stroke-miterlimit="10" d="M324,667.5c0,0-20.229,36.332,2.525,59.565
			c22.754,23.231,107.297,25.213,107.297,25.213l0,0c8.342,0.6,51.554,1.755,60.467-0.163c15.157-3.261,21.891-23.429,24.139-53.992
			c2.248-30.566,0.9-44.725-3.597-42.927c0,0,3.821-13.709-0.448-18.878c0.899-17.304-4.945-21.575-19.776,2.247
			c-14.835,23.822-13.397,47.495-13.397,47.495l-54.773,1.02c0,0-26.859-0.227-33.326-1.917c-6.467-1.689-3.833-12.378-3.833-12.378
			"/>
		<path fill="#231F20" d="M502.76,697.38c-1.671-14.855,3.93-28.506,9.743-41.857c0.642-1.473,2.8-0.201,2.163,1.265
			c-5.644,12.965-11.025,26.162-9.4,40.593C505.446,698.98,502.939,698.967,502.76,697.38"/>
		<path fill="#231F20" d="M514.074,633.244c-6.458,6.094-10.933,13.223-13.71,21.645c-2.759,8.363-5.319,17.41-4.627,26.259
			c0.126,1.605-2.379,1.598-2.505,0c-0.756-9.646,2.125-19.823,5.369-28.828c2.905-8.056,7.479-14.976,13.703-20.845
			C513.476,630.369,515.25,632.136,514.074,633.244"/>
		<path fill="#FFFFFF" stroke="#231F20" stroke-width="3" stroke-miterlimit="10" d="M622,901.5
			c-9.475-4.162-15.792-13.896-21.498-22.375c-7.204-10.706-13.958-20.887-23.029-30.014c-10.683-10.747-29.891-10.224-36.584-25.5
			c-4.952-11.303,8.607-5.474,15.599-6.223c15.307-1.641,31.134-7.041,45.874-11.513c18.889-5.729,35.952-4.79,53.664,4.124
			c15.588,7.845,23.033,21.25,21.986,38.389c-1.086,17.774-15.072,31.09-26.512,43.111"/>
		<g>
			<path fill="#FFFFFF" stroke="#231F20" stroke-width="5" stroke-miterlimit="10" d="M706.89,822.358
				c19.119-19.837,8.404-71.502-34.025-64.063c-42.43,7.438-70.827,49.255-110.342,86.97
				c-39.516,37.716-49.951,47.221-93.154,52.711c-43.205,5.49-44.545,12.377-66.138,13.766c-21.594,1.389-24.061-0.464-25.913,5.553
				c-1.85,6.015,5.245,11.414,7.25,11.567c-2.777,6.632,4.626,10.643,4.626,10.643s-2.202,7.227,4.43,10.62
				c-1.697,10.334,10.068,9.121,10.068,9.121s-5.552,7.56,8.175,8.329c13.727,0.772,23.907,10.951,51.824,0
				c27.916-10.949,80.203,11.568,90.999-25.603C586.463,928.554,679.254,851.037,706.89,822.358"/>
			<path fill="#231F20" d="M383.525,927.331c6.6-2.206,12.835-0.286,19.211-1.175c0.905-0.127,1.296,1.26,0.382,1.389
				c-6.36,0.885-12.934,0.148-19.211,1.173C383.001,928.865,382.612,927.479,383.525,927.331"/>
			<path fill="#231F20" d="M389.018,938.405c7.034-1.43,14.532-1.193,21.658-2.347c0.906-0.147,1.296,1.238,0.382,1.388
				c-7.127,1.153-14.184,1.929-21.657,2.348C387.995,939.873,387.634,938.687,389.018,938.405"/>
			<path fill="#231F20" d="M393.25,947.75c6.997-0.585,14.875-1.5,21.401-1.24c0.926,0.037,1.309,1.418,0.383,1.387
				c-8.159-0.271-14.909,1.354-21.784,1.292C392.324,949.181,392.333,947.826,393.25,947.75"/>
			<path fill="#231F20" d="M402.088,957.251c6.329-1.019,13.438-2.398,19.398-2.614c0.846-0.031,1.29,1.199,0.445,1.235
				c-7.447,0.319-13.479,2.268-19.743,2.688C401.345,958.618,401.258,957.384,402.088,957.251"/>
		</g>
		<path fill="#FFFFFF" stroke="#231F20" stroke-width="3" stroke-miterlimit="10" d="M709.563,846.278
			c0.935-1.734,26.276-52.938,13.911-83.852c-12.365-30.912-69.313-10.925-111.938,13.858C568.908,801.068,542,817.5,542,817.5
			s19.181,13.71,52.411-1.361c33.231-15.07,96.746,6.956,56.103,61.44c-20.165,21.251-28.756,23.57-28.756,23.57
			S671.694,916.604,709.563,846.278"/>
	</g>
</g>
<g id="Layer_4">
</g>
</svg>
